<mxfile host="app.diagrams.net" modified="2021-06-09T11:47:04.114Z" agent="5.0 (Windows NT 10.0; Win64; x64) AppleWebKit/537.36 (KHTML, like Gecko) Chrome/91.0.4472.77 Safari/537.36 Edg/91.0.864.41" etag="M5WqGb6B-4e0nwC7rLTE" version="14.7.6" type="github" pages="2">
  <diagram id="kXJ8zeAZPTjubEKUILeX" name="第 1 页">
    <mxGraphModel dx="442" dy="266" grid="1" gridSize="1" guides="1" tooltips="1" connect="1" arrows="1" fold="1" page="1" pageScale="1" pageWidth="1169" pageHeight="827" math="0" shadow="0">
      <root>
        <mxCell id="0" />
        <mxCell id="1" parent="0" />
        <mxCell id="iWVI8-e-78U0TDI5ckhC-13" style="edgeStyle=none;rounded=0;orthogonalLoop=1;jettySize=auto;html=1;exitX=0;exitY=1;exitDx=0;exitDy=0;entryX=0.5;entryY=0;entryDx=0;entryDy=0;fontSize=16;" edge="1" parent="1" source="iWVI8-e-78U0TDI5ckhC-1" target="iWVI8-e-78U0TDI5ckhC-2">
          <mxGeometry relative="1" as="geometry" />
        </mxCell>
        <mxCell id="iWVI8-e-78U0TDI5ckhC-14" style="edgeStyle=none;rounded=0;orthogonalLoop=1;jettySize=auto;html=1;exitX=1;exitY=1;exitDx=0;exitDy=0;entryX=0.5;entryY=0;entryDx=0;entryDy=0;fontSize=16;" edge="1" parent="1" source="iWVI8-e-78U0TDI5ckhC-1" target="iWVI8-e-78U0TDI5ckhC-4">
          <mxGeometry relative="1" as="geometry" />
        </mxCell>
        <mxCell id="iWVI8-e-78U0TDI5ckhC-1" value="b" style="ellipse;whiteSpace=wrap;html=1;aspect=fixed;fontSize=16;" vertex="1" parent="1">
          <mxGeometry x="400" y="140" width="30" height="30" as="geometry" />
        </mxCell>
        <mxCell id="iWVI8-e-78U0TDI5ckhC-2" value="c" style="ellipse;whiteSpace=wrap;html=1;aspect=fixed;fontSize=16;" vertex="1" parent="1">
          <mxGeometry x="370" y="190" width="30" height="30" as="geometry" />
        </mxCell>
        <mxCell id="iWVI8-e-78U0TDI5ckhC-18" style="edgeStyle=none;rounded=0;orthogonalLoop=1;jettySize=auto;html=1;exitX=0;exitY=1;exitDx=0;exitDy=0;entryX=0.5;entryY=0;entryDx=0;entryDy=0;fontSize=16;" edge="1" parent="1" source="iWVI8-e-78U0TDI5ckhC-4" target="iWVI8-e-78U0TDI5ckhC-8">
          <mxGeometry relative="1" as="geometry" />
        </mxCell>
        <mxCell id="iWVI8-e-78U0TDI5ckhC-19" style="edgeStyle=none;rounded=0;orthogonalLoop=1;jettySize=auto;html=1;exitX=1;exitY=1;exitDx=0;exitDy=0;entryX=0.5;entryY=0;entryDx=0;entryDy=0;fontSize=16;" edge="1" parent="1" source="iWVI8-e-78U0TDI5ckhC-4" target="iWVI8-e-78U0TDI5ckhC-9">
          <mxGeometry relative="1" as="geometry" />
        </mxCell>
        <mxCell id="iWVI8-e-78U0TDI5ckhC-4" value="d" style="ellipse;whiteSpace=wrap;html=1;aspect=fixed;fontSize=16;" vertex="1" parent="1">
          <mxGeometry x="430" y="190" width="30" height="30" as="geometry" />
        </mxCell>
        <mxCell id="iWVI8-e-78U0TDI5ckhC-15" style="edgeStyle=none;rounded=0;orthogonalLoop=1;jettySize=auto;html=1;exitX=0;exitY=1;exitDx=0;exitDy=0;entryX=0.5;entryY=0;entryDx=0;entryDy=0;fontSize=16;" edge="1" parent="1" source="iWVI8-e-78U0TDI5ckhC-5" target="iWVI8-e-78U0TDI5ckhC-6">
          <mxGeometry relative="1" as="geometry" />
        </mxCell>
        <mxCell id="iWVI8-e-78U0TDI5ckhC-16" style="edgeStyle=none;rounded=0;orthogonalLoop=1;jettySize=auto;html=1;exitX=1;exitY=1;exitDx=0;exitDy=0;entryX=0.5;entryY=0;entryDx=0;entryDy=0;fontSize=16;" edge="1" parent="1" source="iWVI8-e-78U0TDI5ckhC-5" target="iWVI8-e-78U0TDI5ckhC-7">
          <mxGeometry relative="1" as="geometry" />
        </mxCell>
        <mxCell id="iWVI8-e-78U0TDI5ckhC-5" value="g" style="ellipse;whiteSpace=wrap;html=1;aspect=fixed;fontSize=16;" vertex="1" parent="1">
          <mxGeometry x="560" y="140" width="30" height="30" as="geometry" />
        </mxCell>
        <mxCell id="iWVI8-e-78U0TDI5ckhC-6" value="h" style="ellipse;whiteSpace=wrap;html=1;aspect=fixed;fontSize=16;" vertex="1" parent="1">
          <mxGeometry x="530" y="190" width="30" height="30" as="geometry" />
        </mxCell>
        <mxCell id="iWVI8-e-78U0TDI5ckhC-7" value="i" style="ellipse;whiteSpace=wrap;html=1;aspect=fixed;fontSize=16;" vertex="1" parent="1">
          <mxGeometry x="590" y="190" width="30" height="30" as="geometry" />
        </mxCell>
        <mxCell id="iWVI8-e-78U0TDI5ckhC-8" value="e" style="ellipse;whiteSpace=wrap;html=1;aspect=fixed;fontSize=16;" vertex="1" parent="1">
          <mxGeometry x="400" y="250" width="30" height="30" as="geometry" />
        </mxCell>
        <mxCell id="iWVI8-e-78U0TDI5ckhC-9" value="f" style="ellipse;whiteSpace=wrap;html=1;aspect=fixed;fontSize=16;" vertex="1" parent="1">
          <mxGeometry x="460" y="250" width="30" height="30" as="geometry" />
        </mxCell>
        <mxCell id="iWVI8-e-78U0TDI5ckhC-11" style="rounded=0;orthogonalLoop=1;jettySize=auto;html=1;exitX=0;exitY=1;exitDx=0;exitDy=0;entryX=0.5;entryY=0;entryDx=0;entryDy=0;fontSize=16;" edge="1" parent="1" source="iWVI8-e-78U0TDI5ckhC-10" target="iWVI8-e-78U0TDI5ckhC-1">
          <mxGeometry relative="1" as="geometry" />
        </mxCell>
        <mxCell id="iWVI8-e-78U0TDI5ckhC-12" style="edgeStyle=none;rounded=0;orthogonalLoop=1;jettySize=auto;html=1;exitX=1;exitY=1;exitDx=0;exitDy=0;entryX=0.5;entryY=0;entryDx=0;entryDy=0;fontSize=16;" edge="1" parent="1" source="iWVI8-e-78U0TDI5ckhC-10" target="iWVI8-e-78U0TDI5ckhC-5">
          <mxGeometry relative="1" as="geometry" />
        </mxCell>
        <mxCell id="iWVI8-e-78U0TDI5ckhC-10" value="a" style="ellipse;whiteSpace=wrap;html=1;aspect=fixed;fontSize=16;" vertex="1" parent="1">
          <mxGeometry x="480" y="80" width="30" height="30" as="geometry" />
        </mxCell>
        <mxCell id="iWVI8-e-78U0TDI5ckhC-20" value="" style="curved=1;endArrow=classic;html=1;fontSize=16;strokeColor=#67AB9F;" edge="1" parent="1">
          <mxGeometry width="50" height="50" relative="1" as="geometry">
            <mxPoint x="480" y="100" as="sourcePoint" />
            <mxPoint x="490" y="120" as="targetPoint" />
            <Array as="points">
              <mxPoint x="390" y="140" />
              <mxPoint x="390" y="170" />
              <mxPoint x="365" y="198" />
              <mxPoint x="359" y="221" />
              <mxPoint x="350" y="250" />
              <mxPoint x="379" y="215" />
              <mxPoint x="382" y="256" />
              <mxPoint x="395" y="230" />
              <mxPoint x="404" y="209" />
              <mxPoint x="412" y="172" />
              <mxPoint x="428" y="179" />
              <mxPoint x="421" y="198" />
              <mxPoint x="395" y="252" />
              <mxPoint x="397" y="281" />
              <mxPoint x="385" y="312" />
              <mxPoint x="411" y="278" />
              <mxPoint x="430" y="321" />
              <mxPoint x="427" y="283" />
              <mxPoint x="437" y="262" />
              <mxPoint x="438" y="227" />
              <mxPoint x="453" y="224" />
              <mxPoint x="456" y="242" />
              <mxPoint x="453" y="259" />
              <mxPoint x="463" y="290" />
              <mxPoint x="448" y="332" />
              <mxPoint x="480" y="280" />
              <mxPoint x="504" y="333" />
              <mxPoint x="493" y="287" />
              <mxPoint x="500" y="250" />
              <mxPoint x="481" y="225" />
              <mxPoint x="453" y="169" />
              <mxPoint x="430" y="150" />
            </Array>
          </mxGeometry>
        </mxCell>
        <mxCell id="iWVI8-e-78U0TDI5ckhC-23" value="&lt;b&gt;&lt;font style=&quot;font-size: 14px&quot;&gt;①&lt;/font&gt;&lt;/b&gt;" style="text;html=1;strokeColor=none;fillColor=none;align=center;verticalAlign=middle;whiteSpace=wrap;rounded=0;fontSize=16;fontColor=#FF3333;" vertex="1" parent="1">
          <mxGeometry x="378" y="132" width="18" height="17" as="geometry" />
        </mxCell>
        <mxCell id="iWVI8-e-78U0TDI5ckhC-24" value="&lt;b&gt;&lt;font style=&quot;font-size: 14px&quot;&gt;②&lt;/font&gt;&lt;/b&gt;" style="text;html=1;strokeColor=none;fillColor=none;align=center;verticalAlign=middle;whiteSpace=wrap;rounded=0;fontSize=16;fontColor=#E00BC4;" vertex="1" parent="1">
          <mxGeometry x="409" y="174" width="18" height="17" as="geometry" />
        </mxCell>
        <mxCell id="iWVI8-e-78U0TDI5ckhC-25" value="&lt;b&gt;&lt;font style=&quot;font-size: 14px&quot;&gt;③&lt;/font&gt;&lt;/b&gt;" style="text;html=1;strokeColor=none;fillColor=none;align=center;verticalAlign=middle;whiteSpace=wrap;rounded=0;fontSize=16;fontColor=#EA6B66;" vertex="1" parent="1">
          <mxGeometry x="438" y="144" width="18" height="17" as="geometry" />
        </mxCell>
      </root>
    </mxGraphModel>
  </diagram>
  <diagram id="NBhHOu9BcgCPmyBcyLKC" name="第 2 页">
    <mxGraphModel dx="641" dy="385" grid="1" gridSize="10" guides="1" tooltips="1" connect="1" arrows="1" fold="1" page="1" pageScale="1" pageWidth="1169" pageHeight="827" math="0" shadow="0">
      <root>
        <mxCell id="1IYhPZbYaYBgLNDLqs1K-0" />
        <mxCell id="1IYhPZbYaYBgLNDLqs1K-1" parent="1IYhPZbYaYBgLNDLqs1K-0" />
        <mxCell id="1IYhPZbYaYBgLNDLqs1K-2" style="edgeStyle=none;rounded=0;orthogonalLoop=1;jettySize=auto;html=1;exitX=0;exitY=1;exitDx=0;exitDy=0;entryX=0.5;entryY=0;entryDx=0;entryDy=0;fontSize=16;" edge="1" parent="1IYhPZbYaYBgLNDLqs1K-1" source="1IYhPZbYaYBgLNDLqs1K-4" target="1IYhPZbYaYBgLNDLqs1K-5">
          <mxGeometry relative="1" as="geometry" />
        </mxCell>
        <mxCell id="1IYhPZbYaYBgLNDLqs1K-3" style="edgeStyle=none;rounded=0;orthogonalLoop=1;jettySize=auto;html=1;exitX=1;exitY=1;exitDx=0;exitDy=0;entryX=0.5;entryY=0;entryDx=0;entryDy=0;fontSize=16;" edge="1" parent="1IYhPZbYaYBgLNDLqs1K-1" source="1IYhPZbYaYBgLNDLqs1K-4" target="1IYhPZbYaYBgLNDLqs1K-8">
          <mxGeometry relative="1" as="geometry" />
        </mxCell>
        <mxCell id="1IYhPZbYaYBgLNDLqs1K-4" value="2" style="ellipse;whiteSpace=wrap;html=1;aspect=fixed;fontSize=16;" vertex="1" parent="1IYhPZbYaYBgLNDLqs1K-1">
          <mxGeometry x="420" y="140" width="30" height="30" as="geometry" />
        </mxCell>
        <mxCell id="1IYhPZbYaYBgLNDLqs1K-5" value="1" style="ellipse;whiteSpace=wrap;html=1;aspect=fixed;fontSize=16;" vertex="1" parent="1IYhPZbYaYBgLNDLqs1K-1">
          <mxGeometry x="390" y="190" width="30" height="30" as="geometry" />
        </mxCell>
        <mxCell id="1IYhPZbYaYBgLNDLqs1K-8" value="4" style="ellipse;whiteSpace=wrap;html=1;aspect=fixed;fontSize=16;" vertex="1" parent="1IYhPZbYaYBgLNDLqs1K-1">
          <mxGeometry x="450" y="190" width="30" height="30" as="geometry" />
        </mxCell>
        <mxCell id="1IYhPZbYaYBgLNDLqs1K-9" style="edgeStyle=none;rounded=0;orthogonalLoop=1;jettySize=auto;html=1;exitX=0;exitY=1;exitDx=0;exitDy=0;entryX=0.5;entryY=0;entryDx=0;entryDy=0;fontSize=16;" edge="1" parent="1IYhPZbYaYBgLNDLqs1K-1" source="1IYhPZbYaYBgLNDLqs1K-11" target="1IYhPZbYaYBgLNDLqs1K-12">
          <mxGeometry relative="1" as="geometry" />
        </mxCell>
        <mxCell id="1IYhPZbYaYBgLNDLqs1K-10" style="edgeStyle=none;rounded=0;orthogonalLoop=1;jettySize=auto;html=1;exitX=1;exitY=1;exitDx=0;exitDy=0;entryX=0.5;entryY=0;entryDx=0;entryDy=0;fontSize=16;" edge="1" parent="1IYhPZbYaYBgLNDLqs1K-1" source="1IYhPZbYaYBgLNDLqs1K-11" target="1IYhPZbYaYBgLNDLqs1K-13">
          <mxGeometry relative="1" as="geometry" />
        </mxCell>
        <mxCell id="1IYhPZbYaYBgLNDLqs1K-11" value="12" style="ellipse;whiteSpace=wrap;html=1;aspect=fixed;fontSize=16;" vertex="1" parent="1IYhPZbYaYBgLNDLqs1K-1">
          <mxGeometry x="530" y="140" width="30" height="30" as="geometry" />
        </mxCell>
        <mxCell id="1IYhPZbYaYBgLNDLqs1K-12" value="8" style="ellipse;whiteSpace=wrap;html=1;aspect=fixed;fontSize=16;" vertex="1" parent="1IYhPZbYaYBgLNDLqs1K-1">
          <mxGeometry x="500" y="190" width="30" height="30" as="geometry" />
        </mxCell>
        <mxCell id="1IYhPZbYaYBgLNDLqs1K-13" value="20" style="ellipse;whiteSpace=wrap;html=1;aspect=fixed;fontSize=16;" vertex="1" parent="1IYhPZbYaYBgLNDLqs1K-1">
          <mxGeometry x="560" y="190" width="30" height="30" as="geometry" />
        </mxCell>
        <mxCell id="1IYhPZbYaYBgLNDLqs1K-16" style="rounded=0;orthogonalLoop=1;jettySize=auto;html=1;exitX=0;exitY=1;exitDx=0;exitDy=0;entryX=0.5;entryY=0;entryDx=0;entryDy=0;fontSize=16;" edge="1" parent="1IYhPZbYaYBgLNDLqs1K-1" source="1IYhPZbYaYBgLNDLqs1K-18" target="1IYhPZbYaYBgLNDLqs1K-4">
          <mxGeometry relative="1" as="geometry" />
        </mxCell>
        <mxCell id="1IYhPZbYaYBgLNDLqs1K-17" style="edgeStyle=none;rounded=0;orthogonalLoop=1;jettySize=auto;html=1;exitX=1;exitY=1;exitDx=0;exitDy=0;entryX=0.5;entryY=0;entryDx=0;entryDy=0;fontSize=16;" edge="1" parent="1IYhPZbYaYBgLNDLqs1K-1" source="1IYhPZbYaYBgLNDLqs1K-18" target="1IYhPZbYaYBgLNDLqs1K-11">
          <mxGeometry relative="1" as="geometry" />
        </mxCell>
        <mxCell id="1IYhPZbYaYBgLNDLqs1K-18" value="5" style="ellipse;whiteSpace=wrap;html=1;aspect=fixed;fontSize=16;" vertex="1" parent="1IYhPZbYaYBgLNDLqs1K-1">
          <mxGeometry x="480" y="80" width="30" height="30" as="geometry" />
        </mxCell>
        <mxCell id="1IYhPZbYaYBgLNDLqs1K-22" style="edgeStyle=none;rounded=0;orthogonalLoop=1;jettySize=auto;html=1;exitX=0;exitY=1;exitDx=0;exitDy=0;entryX=0.5;entryY=0;entryDx=0;entryDy=0;fontSize=16;" edge="1" parent="1IYhPZbYaYBgLNDLqs1K-1" source="1IYhPZbYaYBgLNDLqs1K-24" target="1IYhPZbYaYBgLNDLqs1K-25">
          <mxGeometry relative="1" as="geometry" />
        </mxCell>
        <mxCell id="1IYhPZbYaYBgLNDLqs1K-23" style="edgeStyle=none;rounded=0;orthogonalLoop=1;jettySize=auto;html=1;exitX=1;exitY=1;exitDx=0;exitDy=0;entryX=0.5;entryY=0;entryDx=0;entryDy=0;fontSize=16;" edge="1" parent="1IYhPZbYaYBgLNDLqs1K-1" source="1IYhPZbYaYBgLNDLqs1K-24" target="1IYhPZbYaYBgLNDLqs1K-26">
          <mxGeometry relative="1" as="geometry" />
        </mxCell>
        <mxCell id="1IYhPZbYaYBgLNDLqs1K-24" value="2" style="ellipse;whiteSpace=wrap;html=1;aspect=fixed;fontSize=16;" vertex="1" parent="1IYhPZbYaYBgLNDLqs1K-1">
          <mxGeometry x="170" y="140" width="30" height="30" as="geometry" />
        </mxCell>
        <mxCell id="1IYhPZbYaYBgLNDLqs1K-25" value="20" style="ellipse;whiteSpace=wrap;html=1;aspect=fixed;fontSize=16;fillColor=#f8cecc;strokeColor=#b85450;" vertex="1" parent="1IYhPZbYaYBgLNDLqs1K-1">
          <mxGeometry x="140" y="190" width="30" height="30" as="geometry" />
        </mxCell>
        <mxCell id="1IYhPZbYaYBgLNDLqs1K-26" value="4" style="ellipse;whiteSpace=wrap;html=1;aspect=fixed;fontSize=16;" vertex="1" parent="1IYhPZbYaYBgLNDLqs1K-1">
          <mxGeometry x="200" y="190" width="30" height="30" as="geometry" />
        </mxCell>
        <mxCell id="1IYhPZbYaYBgLNDLqs1K-27" style="edgeStyle=none;rounded=0;orthogonalLoop=1;jettySize=auto;html=1;exitX=0;exitY=1;exitDx=0;exitDy=0;entryX=0.5;entryY=0;entryDx=0;entryDy=0;fontSize=16;" edge="1" parent="1IYhPZbYaYBgLNDLqs1K-1" source="1IYhPZbYaYBgLNDLqs1K-29" target="1IYhPZbYaYBgLNDLqs1K-30">
          <mxGeometry relative="1" as="geometry" />
        </mxCell>
        <mxCell id="1IYhPZbYaYBgLNDLqs1K-28" style="edgeStyle=none;rounded=0;orthogonalLoop=1;jettySize=auto;html=1;exitX=1;exitY=1;exitDx=0;exitDy=0;entryX=0.5;entryY=0;entryDx=0;entryDy=0;fontSize=16;" edge="1" parent="1IYhPZbYaYBgLNDLqs1K-1" source="1IYhPZbYaYBgLNDLqs1K-29" target="1IYhPZbYaYBgLNDLqs1K-31">
          <mxGeometry relative="1" as="geometry" />
        </mxCell>
        <mxCell id="1IYhPZbYaYBgLNDLqs1K-29" value="12" style="ellipse;whiteSpace=wrap;html=1;aspect=fixed;fontSize=16;" vertex="1" parent="1IYhPZbYaYBgLNDLqs1K-1">
          <mxGeometry x="280" y="140" width="30" height="30" as="geometry" />
        </mxCell>
        <mxCell id="1IYhPZbYaYBgLNDLqs1K-30" value="8" style="ellipse;whiteSpace=wrap;html=1;aspect=fixed;fontSize=16;" vertex="1" parent="1IYhPZbYaYBgLNDLqs1K-1">
          <mxGeometry x="250" y="190" width="30" height="30" as="geometry" />
        </mxCell>
        <mxCell id="1IYhPZbYaYBgLNDLqs1K-31" value="1" style="ellipse;whiteSpace=wrap;html=1;aspect=fixed;fontSize=16;fillColor=#f8cecc;strokeColor=#b85450;" vertex="1" parent="1IYhPZbYaYBgLNDLqs1K-1">
          <mxGeometry x="310" y="190" width="30" height="30" as="geometry" />
        </mxCell>
        <mxCell id="1IYhPZbYaYBgLNDLqs1K-32" style="rounded=0;orthogonalLoop=1;jettySize=auto;html=1;exitX=0;exitY=1;exitDx=0;exitDy=0;entryX=0.5;entryY=0;entryDx=0;entryDy=0;fontSize=16;" edge="1" parent="1IYhPZbYaYBgLNDLqs1K-1" source="1IYhPZbYaYBgLNDLqs1K-34" target="1IYhPZbYaYBgLNDLqs1K-24">
          <mxGeometry relative="1" as="geometry" />
        </mxCell>
        <mxCell id="1IYhPZbYaYBgLNDLqs1K-33" style="edgeStyle=none;rounded=0;orthogonalLoop=1;jettySize=auto;html=1;exitX=1;exitY=1;exitDx=0;exitDy=0;entryX=0.5;entryY=0;entryDx=0;entryDy=0;fontSize=16;" edge="1" parent="1IYhPZbYaYBgLNDLqs1K-1" source="1IYhPZbYaYBgLNDLqs1K-34" target="1IYhPZbYaYBgLNDLqs1K-29">
          <mxGeometry relative="1" as="geometry" />
        </mxCell>
        <mxCell id="1IYhPZbYaYBgLNDLqs1K-34" value="5" style="ellipse;whiteSpace=wrap;html=1;aspect=fixed;fontSize=16;" vertex="1" parent="1IYhPZbYaYBgLNDLqs1K-1">
          <mxGeometry x="230" y="80" width="30" height="30" as="geometry" />
        </mxCell>
        <mxCell id="1IYhPZbYaYBgLNDLqs1K-35" value="1， 2，4，5，8，12，20" style="text;html=1;strokeColor=none;fillColor=none;align=center;verticalAlign=middle;whiteSpace=wrap;rounded=0;fontSize=16;" vertex="1" parent="1IYhPZbYaYBgLNDLqs1K-1">
          <mxGeometry x="395" y="280" width="195" height="20" as="geometry" />
        </mxCell>
        <mxCell id="1IYhPZbYaYBgLNDLqs1K-36" value="中序遍历" style="text;html=1;strokeColor=none;fillColor=none;align=center;verticalAlign=middle;whiteSpace=wrap;rounded=0;fontSize=16;" vertex="1" parent="1IYhPZbYaYBgLNDLqs1K-1">
          <mxGeometry x="395" y="260" width="75" height="20" as="geometry" />
        </mxCell>
        <mxCell id="1IYhPZbYaYBgLNDLqs1K-37" value="&lt;font color=&quot;#ff99cc&quot;&gt;20&lt;/font&gt;， 2，4，5，8，12，&lt;font color=&quot;#cc6872&quot;&gt;1&lt;/font&gt;" style="text;html=1;strokeColor=none;fillColor=none;align=center;verticalAlign=middle;whiteSpace=wrap;rounded=0;fontSize=16;fontColor=#67AB9F;" vertex="1" parent="1IYhPZbYaYBgLNDLqs1K-1">
          <mxGeometry x="140" y="280" width="195" height="20" as="geometry" />
        </mxCell>
        <mxCell id="1IYhPZbYaYBgLNDLqs1K-38" value="中序遍历" style="text;html=1;strokeColor=none;fillColor=none;align=center;verticalAlign=middle;whiteSpace=wrap;rounded=0;fontSize=16;fontColor=#67AB9F;" vertex="1" parent="1IYhPZbYaYBgLNDLqs1K-1">
          <mxGeometry x="140" y="260" width="75" height="20" as="geometry" />
        </mxCell>
        <mxCell id="1IYhPZbYaYBgLNDLqs1K-47" value="" style="rounded=0;whiteSpace=wrap;html=1;fontSize=16;fontColor=#000000;" vertex="1" parent="1IYhPZbYaYBgLNDLqs1K-1">
          <mxGeometry x="274" y="434" width="60" height="80" as="geometry" />
        </mxCell>
        <mxCell id="1IYhPZbYaYBgLNDLqs1K-48" value="" style="rounded=0;whiteSpace=wrap;html=1;fontSize=16;fontColor=#000000;" vertex="1" parent="1IYhPZbYaYBgLNDLqs1K-1">
          <mxGeometry x="134" y="434" width="60" height="80" as="geometry" />
        </mxCell>
        <mxCell id="1IYhPZbYaYBgLNDLqs1K-49" value="1， 2，4，5，8，12，20" style="text;html=1;strokeColor=none;fillColor=none;align=center;verticalAlign=middle;whiteSpace=wrap;rounded=0;fontSize=16;" vertex="1" parent="1IYhPZbYaYBgLNDLqs1K-1">
          <mxGeometry x="389" y="434" width="195" height="20" as="geometry" />
        </mxCell>
        <mxCell id="1IYhPZbYaYBgLNDLqs1K-50" value="中序遍历" style="text;html=1;strokeColor=none;fillColor=none;align=center;verticalAlign=middle;whiteSpace=wrap;rounded=0;fontSize=16;" vertex="1" parent="1IYhPZbYaYBgLNDLqs1K-1">
          <mxGeometry x="389" y="414" width="75" height="20" as="geometry" />
        </mxCell>
        <mxCell id="1IYhPZbYaYBgLNDLqs1K-51" value="&lt;font color=&quot;#ff99cc&quot;&gt;20&lt;/font&gt;， 2，4，5，8，12，&lt;font color=&quot;#cc6872&quot;&gt;1&lt;/font&gt;" style="text;html=1;strokeColor=none;fillColor=none;align=center;verticalAlign=middle;whiteSpace=wrap;rounded=0;fontSize=16;fontColor=#67AB9F;" vertex="1" parent="1IYhPZbYaYBgLNDLqs1K-1">
          <mxGeometry x="134" y="434" width="195" height="20" as="geometry" />
        </mxCell>
        <mxCell id="1IYhPZbYaYBgLNDLqs1K-52" value="中序遍历" style="text;html=1;strokeColor=none;fillColor=none;align=center;verticalAlign=middle;whiteSpace=wrap;rounded=0;fontSize=16;fontColor=#67AB9F;" vertex="1" parent="1IYhPZbYaYBgLNDLqs1K-1">
          <mxGeometry x="134" y="414" width="75" height="20" as="geometry" />
        </mxCell>
        <mxCell id="1IYhPZbYaYBgLNDLqs1K-53" style="edgeStyle=none;rounded=0;orthogonalLoop=1;jettySize=auto;html=1;exitX=0.5;exitY=0;exitDx=0;exitDy=0;entryX=0.077;entryY=1.058;entryDx=0;entryDy=0;entryPerimeter=0;fontSize=16;fontColor=#000000;strokeColor=#001DBC;fillColor=#0050ef;" edge="1" parent="1IYhPZbYaYBgLNDLqs1K-1" source="1IYhPZbYaYBgLNDLqs1K-54" target="1IYhPZbYaYBgLNDLqs1K-51">
          <mxGeometry relative="1" as="geometry" />
        </mxCell>
        <mxCell id="1IYhPZbYaYBgLNDLqs1K-54" value="p1" style="text;html=1;strokeColor=none;fillColor=none;align=center;verticalAlign=middle;whiteSpace=wrap;rounded=0;fontSize=16;fontColor=#000000;" vertex="1" parent="1IYhPZbYaYBgLNDLqs1K-1">
          <mxGeometry x="129" y="484" width="40" height="20" as="geometry" />
        </mxCell>
        <mxCell id="1IYhPZbYaYBgLNDLqs1K-55" style="edgeStyle=none;rounded=0;orthogonalLoop=1;jettySize=auto;html=1;exitX=0.5;exitY=0;exitDx=0;exitDy=0;entryX=0.948;entryY=1;entryDx=0;entryDy=0;entryPerimeter=0;fontSize=16;fontColor=#000000;strokeColor=#001DBC;fillColor=#0050ef;" edge="1" parent="1IYhPZbYaYBgLNDLqs1K-1" source="1IYhPZbYaYBgLNDLqs1K-56" target="1IYhPZbYaYBgLNDLqs1K-51">
          <mxGeometry relative="1" as="geometry" />
        </mxCell>
        <mxCell id="1IYhPZbYaYBgLNDLqs1K-56" value="p2" style="text;html=1;strokeColor=none;fillColor=none;align=center;verticalAlign=middle;whiteSpace=wrap;rounded=0;fontSize=16;fontColor=#000000;" vertex="1" parent="1IYhPZbYaYBgLNDLqs1K-1">
          <mxGeometry x="299" y="484" width="40" height="20" as="geometry" />
        </mxCell>
      </root>
    </mxGraphModel>
  </diagram>
</mxfile>
